<?xml version="1.0" encoding="utf-8"?>
<!DOCTYPE svg PUBLIC "-//W3C//DTD SVG 1.1//EN" "http://www.w3.org/Graphics/SVG/1.1/DTD/svg11.dtd">
<svg version="1.1" xmlns="http://www.w3.org/2000/svg" xmlns:xlink="http://www.w3.org/1999/xlink" x="0px" y="0px" viewBox="0 0 256 256" enable-background="new 0 0 256 256" xml:space="preserve">
<metadata> Svg Vector Icons : http://www.onlinewebfonts.com/icon </metadata>
<g><g><g><path fill="#F0768B" d="M128,10C62.9,10,10,62.9,10,128c0,65.1,52.9,118,118,118c65.1,0,118-52.9,118-118C246,62.9,193.1,10,128,10z M171.2,143.6c4.2,4.2,4.2,11,0,15.2l-12.4,12.4c-2.1,2.1-4.8,3.2-7.6,3.2c-2.7,0-5.5-1.1-7.6-3.2L128,155.6l-15.6,15.6c-2.1,2.1-4.8,3.2-7.6,3.2c-2.8,0-5.5-1.1-7.6-3.2l-12.4-12.4c-4.2-4.2-4.2-11,0-15.2l15.6-15.6l-15.6-15.6c-4.2-4.2-4.2-11,0-15.2l12.4-12.4c4.2-4.2,11-4.2,15.2,0l15.6,15.6l15.6-15.6c4.2-4.2,11-4.2,15.2,0l12.4,12.4c4.2,4.2,4.2,11,0,15.2L155.6,128L171.2,143.6z"/></g><g></g><g></g><g></g><g></g><g></g><g></g><g></g><g></g><g></g><g></g><g></g><g></g><g></g><g></g><g></g></g></g>
</svg>