<svg width="204" height="28" viewBox="0 0 204 28" fill="none" xmlns="http://www.w3.org/2000/svg">
<path d="M0.56 27V0.36H4.268V27H0.56ZM28.7002 27.36C26.2522 27.36 24.0802 26.94 22.1842 26.1C20.3122 25.26 18.8362 24.096 17.7562 22.608C16.7002 21.12 16.1722 19.428 16.1722 17.532C16.1722 15.612 16.7002 13.92 17.7562 12.456C18.8362 10.968 20.3122 9.804 22.1842 8.964C24.0802 8.124 26.2522 7.704 28.7002 7.704C31.1482 7.704 33.3082 8.124 35.1802 8.964C37.0522 9.804 38.5162 10.968 39.5722 12.456C40.6522 13.92 41.1922 15.612 41.1922 17.532C41.1922 19.428 40.6522 21.12 39.5722 22.608C38.5162 24.096 37.0522 25.26 35.1802 26.1C33.3082 26.94 31.1482 27.36 28.7002 27.36ZM28.7002 23.976C30.3322 23.976 31.8082 23.7 33.1282 23.148C34.4722 22.596 35.5282 21.84 36.2962 20.88C37.0882 19.896 37.4602 18.78 37.4122 17.532C37.4602 16.26 37.0882 15.144 36.2962 14.184C35.5282 13.224 34.4722 12.468 33.1282 11.916C31.8082 11.364 30.3322 11.088 28.7002 11.088C27.0682 11.088 25.5802 11.364 24.2362 11.916C22.9162 12.468 21.8602 13.224 21.0682 14.184C20.3002 15.144 19.9282 16.26 19.9522 17.532C19.9282 18.78 20.3002 19.896 21.0682 20.88C21.8602 21.84 22.9162 22.596 24.2362 23.148C25.5802 23.7 27.0682 23.976 28.7002 23.976ZM53.795 27V8.1H57.539V14.976L56.459 14.76C56.843 13.464 57.479 12.288 58.367 11.232C59.255 10.152 60.287 9.3 61.463 8.676C62.639 8.028 63.851 7.704 65.099 7.704C65.987 7.704 66.851 7.8 67.691 7.992C68.531 8.184 69.191 8.448 69.671 8.784L68.699 12.6C68.171 12.288 67.511 12.048 66.719 11.88C65.951 11.688 65.231 11.592 64.559 11.592C63.479 11.592 62.507 11.772 61.643 12.132C60.779 12.492 60.035 12.972 59.411 13.572C58.811 14.148 58.343 14.796 58.007 15.516C57.695 16.212 57.539 16.92 57.539 17.64V27H53.795ZM90.3634 27.36C87.8674 27.36 85.6474 26.952 83.7034 26.136C81.7594 25.296 80.2354 24.156 79.1314 22.716C78.0514 21.252 77.5114 19.596 77.5114 17.748C77.5114 16.164 77.8354 14.76 78.4834 13.536C79.1554 12.288 80.0674 11.232 81.2194 10.368C82.3954 9.504 83.7394 8.844 85.2514 8.388C86.7634 7.908 88.3594 7.668 90.0394 7.668C91.6234 7.668 93.1114 7.896 94.5034 8.352C95.8954 8.784 97.1194 9.408 98.1754 10.224C99.2314 11.04 100.047 12.012 100.623 13.14C101.223 14.244 101.511 15.48 101.487 16.848L101.451 18.792H80.9674L80.1394 15.84H98.2474L97.7074 16.092V15.228C97.5874 14.412 97.1434 13.692 96.3754 13.068C95.6314 12.444 94.6954 11.964 93.5674 11.628C92.4634 11.268 91.2874 11.088 90.0394 11.088C88.4074 11.088 86.9194 11.292 85.5754 11.7C84.2314 12.108 83.1634 12.78 82.3714 13.716C81.5794 14.652 81.1834 15.912 81.1834 17.496C81.1834 18.792 81.6034 19.92 82.4434 20.88C83.2834 21.84 84.4474 22.584 85.9354 23.112C87.4234 23.64 89.1394 23.904 91.0834 23.904C93.0274 23.904 94.6354 23.652 95.9074 23.148C97.1794 22.644 98.2114 22.164 99.0034 21.708L100.623 24.516C99.9034 24.996 98.9914 25.464 97.8874 25.92C96.8074 26.352 95.6194 26.7 94.3234 26.964C93.0274 27.228 91.7074 27.36 90.3634 27.36ZM114.615 27V8.1H118.323V13.428L116.955 13.5C117.507 12.588 118.215 11.688 119.079 10.8C119.967 9.912 121.011 9.18 122.211 8.604C123.435 8.004 124.803 7.704 126.315 7.704C128.307 7.704 129.963 8.076 131.283 8.82C132.627 9.54 133.635 10.524 134.307 11.772C134.979 12.996 135.315 14.352 135.315 15.84V27H131.607V16.452C131.607 15.396 131.319 14.472 130.743 13.68C130.191 12.888 129.447 12.276 128.511 11.844C127.599 11.388 126.579 11.16 125.451 11.16C124.419 11.16 123.459 11.352 122.571 11.736C121.707 12.096 120.951 12.576 120.303 13.176C119.679 13.752 119.187 14.376 118.827 15.048C118.491 15.72 118.323 16.368 118.323 16.992V27H116.487C115.863 27 115.395 27 115.083 27C114.771 27 114.615 27 114.615 27ZM159.603 27.36C157.395 27.36 155.403 26.928 153.627 26.064C151.875 25.2 150.483 24.024 149.451 22.536C148.419 21.048 147.903 19.38 147.903 17.532C147.903 15.66 148.419 13.992 149.451 12.528C150.483 11.04 151.875 9.864 153.627 9C155.403 8.136 157.395 7.704 159.603 7.704C161.811 7.704 163.863 8.028 165.759 8.676C167.655 9.324 169.143 10.224 170.223 11.376L168.135 14.4C167.487 13.776 166.683 13.212 165.723 12.708C164.787 12.204 163.791 11.808 162.735 11.52C161.679 11.208 160.635 11.052 159.603 11.052C158.067 11.052 156.711 11.34 155.535 11.916C154.359 12.468 153.435 13.236 152.763 14.22C152.115 15.18 151.791 16.284 151.791 17.532C151.791 18.78 152.139 19.896 152.835 20.88C153.555 21.84 154.503 22.608 155.679 23.184C156.879 23.736 158.199 24.012 159.639 24.012C160.935 24.012 162.099 23.88 163.131 23.616C164.187 23.328 165.123 22.98 165.939 22.572C166.779 22.164 167.535 21.768 168.207 21.384L170.223 24.264C168.879 25.08 167.331 25.8 165.579 26.424C163.851 27.048 161.859 27.36 159.603 27.36ZM192.07 27.36C189.574 27.36 187.354 26.952 185.41 26.136C183.466 25.296 181.942 24.156 180.838 22.716C179.758 21.252 179.218 19.596 179.218 17.748C179.218 16.164 179.542 14.76 180.19 13.536C180.862 12.288 181.774 11.232 182.926 10.368C184.102 9.504 185.446 8.844 186.958 8.388C188.47 7.908 190.066 7.668 191.746 7.668C193.33 7.668 194.818 7.896 196.21 8.352C197.602 8.784 198.826 9.408 199.882 10.224C200.938 11.04 201.754 12.012 202.33 13.14C202.93 14.244 203.218 15.48 203.194 16.848L203.158 18.792H182.674L181.846 15.84H199.954L199.414 16.092V15.228C199.294 14.412 198.85 13.692 198.082 13.068C197.338 12.444 196.402 11.964 195.274 11.628C194.17 11.268 192.994 11.088 191.746 11.088C190.114 11.088 188.626 11.292 187.282 11.7C185.938 12.108 184.87 12.78 184.078 13.716C183.286 14.652 182.89 15.912 182.89 17.496C182.89 18.792 183.31 19.92 184.15 20.88C184.99 21.84 186.154 22.584 187.642 23.112C189.13 23.64 190.846 23.904 192.79 23.904C194.734 23.904 196.342 23.652 197.614 23.148C198.886 22.644 199.918 22.164 200.71 21.708L202.33 24.516C201.61 24.996 200.698 25.464 199.594 25.92C198.514 26.352 197.326 26.7 196.03 26.964C194.734 27.228 193.414 27.36 192.07 27.36Z" fill="#F0768B"/>
</svg>
